<svg width="20" height="20" viewBox="0 0 20 20" fill="none" xmlns="http://www.w3.org/2000/svg">
<path d="M9.99967 5.00004C10.4599 5.00004 10.833 4.62694 10.833 4.16671C10.833 3.70647 10.4599 3.33337 9.99967 3.33337C9.53944 3.33337 9.16634 3.70647 9.16634 4.16671C9.16634 4.62694 9.53944 5.00004 9.99967 5.00004Z" stroke="#D2D6DB" stroke-width="1.66667" stroke-linecap="round" stroke-linejoin="round"/>
<path d="M9.99967 10.8334C10.4599 10.8334 10.833 10.4603 10.833 10C10.833 9.5398 10.4599 9.16671 9.99967 9.16671C9.53944 9.16671 9.16634 9.5398 9.16634 10C9.16634 10.4603 9.53944 10.8334 9.99967 10.8334Z" stroke="#D2D6DB" stroke-width="1.66667" stroke-linecap="round" stroke-linejoin="round"/>
<path d="M9.99967 16.6667C10.4599 16.6667 10.833 16.2936 10.833 15.8334C10.833 15.3731 10.4599 15 9.99967 15C9.53944 15 9.16634 15.3731 9.16634 15.8334C9.16634 16.2936 9.53944 16.6667 9.99967 16.6667Z" stroke="#D2D6DB" stroke-width="1.66667" stroke-linecap="round" stroke-linejoin="round"/>
<path d="M15.833 5.00004C16.2932 5.00004 16.6663 4.62694 16.6663 4.16671C16.6663 3.70647 16.2932 3.33337 15.833 3.33337C15.3728 3.33337 14.9997 3.70647 14.9997 4.16671C14.9997 4.62694 15.3728 5.00004 15.833 5.00004Z" stroke="#D2D6DB" stroke-width="1.66667" stroke-linecap="round" stroke-linejoin="round"/>
<path d="M15.833 10.8334C16.2932 10.8334 16.6663 10.4603 16.6663 10C16.6663 9.5398 16.2932 9.16671 15.833 9.16671C15.3728 9.16671 14.9997 9.5398 14.9997 10C14.9997 10.4603 15.3728 10.8334 15.833 10.8334Z" stroke="#D2D6DB" stroke-width="1.66667" stroke-linecap="round" stroke-linejoin="round"/>
<path d="M15.833 16.6667C16.2932 16.6667 16.6663 16.2936 16.6663 15.8334C16.6663 15.3731 16.2932 15 15.833 15C15.3728 15 14.9997 15.3731 14.9997 15.8334C14.9997 16.2936 15.3728 16.6667 15.833 16.6667Z" stroke="#D2D6DB" stroke-width="1.66667" stroke-linecap="round" stroke-linejoin="round"/>
<path d="M4.16634 5.00004C4.62658 5.00004 4.99967 4.62694 4.99967 4.16671C4.99967 3.70647 4.62658 3.33337 4.16634 3.33337C3.7061 3.33337 3.33301 3.70647 3.33301 4.16671C3.33301 4.62694 3.7061 5.00004 4.16634 5.00004Z" stroke="#D2D6DB" stroke-width="1.66667" stroke-linecap="round" stroke-linejoin="round"/>
<path d="M4.16634 10.8334C4.62658 10.8334 4.99967 10.4603 4.99967 10C4.99967 9.5398 4.62658 9.16671 4.16634 9.16671C3.7061 9.16671 3.33301 9.5398 3.33301 10C3.33301 10.4603 3.7061 10.8334 4.16634 10.8334Z" stroke="#D2D6DB" stroke-width="1.66667" stroke-linecap="round" stroke-linejoin="round"/>
<path d="M4.16634 16.6667C4.62658 16.6667 4.99967 16.2936 4.99967 15.8334C4.99967 15.3731 4.62658 15 4.16634 15C3.7061 15 3.33301 15.3731 3.33301 15.8334C3.33301 16.2936 3.7061 16.6667 4.16634 16.6667Z" stroke="#D2D6DB" stroke-width="1.66667" stroke-linecap="round" stroke-linejoin="round"/>
</svg>
