<svg width="4" height="16" viewBox="0 0 4 16" fill="none" xmlns="http://www.w3.org/2000/svg">
<path d="M2.00033 8.83325C2.46056 8.83325 2.83366 8.46016 2.83366 7.99992C2.83366 7.53968 2.46056 7.16659 2.00033 7.16659C1.54009 7.16659 1.16699 7.53968 1.16699 7.99992C1.16699 8.46016 1.54009 8.83325 2.00033 8.83325Z" stroke="#6C737F" stroke-width="1.66667" stroke-linecap="round" stroke-linejoin="round"/>
<path d="M2.00033 2.99992C2.46056 2.99992 2.83366 2.62682 2.83366 2.16659C2.83366 1.70635 2.46056 1.33325 2.00033 1.33325C1.54009 1.33325 1.16699 1.70635 1.16699 2.16659C1.16699 2.62682 1.54009 2.99992 2.00033 2.99992Z" stroke="#6C737F" stroke-width="1.66667" stroke-linecap="round" stroke-linejoin="round"/>
<path d="M2.00033 14.6666C2.46056 14.6666 2.83366 14.2935 2.83366 13.8333C2.83366 13.373 2.46056 12.9999 2.00033 12.9999C1.54009 12.9999 1.16699 13.373 1.16699 13.8333C1.16699 14.2935 1.54009 14.6666 2.00033 14.6666Z" stroke="#6C737F" stroke-width="1.66667" stroke-linecap="round" stroke-linejoin="round"/>
</svg>
