<svg width="18" height="20" viewBox="0 0 18 20" fill="none" xmlns="http://www.w3.org/2000/svg">
<path d="M10.6667 16.6667C10.6667 17.5872 9.92047 18.3334 9 18.3334C8.07953 18.3334 7.33333 17.5872 7.33333 16.6667M10.6667 16.6667C10.6667 15.7462 9.92047 15 9 15M10.6667 16.6667H16.5M7.33333 16.6667C7.33333 15.7462 8.07953 15 9 15M7.33333 16.6667H1.5M9 15V11.6667M16.5 4.16669C16.5 5.5474 13.1421 6.66669 9 6.66669C4.85786 6.66669 1.5 5.5474 1.5 4.16669M16.5 4.16669C16.5 2.78598 13.1421 1.66669 9 1.66669C4.85786 1.66669 1.5 2.78598 1.5 4.16669M16.5 4.16669V9.16669C16.5 10.55 13.1667 11.6667 9 11.6667M1.5 4.16669V9.16669C1.5 10.55 4.83333 11.6667 9 11.6667" stroke="#1F2A37" stroke-width="1.66667" stroke-linecap="round" stroke-linejoin="round"/>
</svg>